<svg width="160" height="20" viewBox="0 0 160 20" fill="none" xmlns="http://www.w3.org/2000/svg">
<path d="M31.4854 16.0005V3.20361H35.0977C36.2109 3.20361 37.1953 3.44971 38.0508 3.94189C38.9062 4.43408 39.5654 5.13428 40.0283 6.04248C40.4971 6.95068 40.7344 7.99365 40.7402 9.17139V9.98877C40.7402 11.1958 40.5059 12.2534 40.0371 13.1616C39.5742 14.0698 38.9092 14.7671 38.042 15.2534C37.1807 15.7397 36.1758 15.9888 35.0273 16.0005H31.4854ZM33.1729 4.59229V14.6206H34.9482C36.249 14.6206 37.2598 14.2163 37.9805 13.4077C38.707 12.5991 39.0703 11.4478 39.0703 9.95361V9.20654C39.0703 7.75342 38.7275 6.62549 38.042 5.82275C37.3623 5.01416 36.3955 4.604 35.1416 4.59229H33.1729ZM48.9141 16.0005C48.8203 15.813 48.7441 15.479 48.6855 14.9985C47.9297 15.7837 47.0273 16.1763 45.9785 16.1763C45.041 16.1763 44.2705 15.9126 43.667 15.3853C43.0693 14.8521 42.7705 14.1782 42.7705 13.3638C42.7705 12.3735 43.1455 11.606 43.8955 11.061C44.6514 10.5103 45.7119 10.2349 47.0771 10.2349H48.6592V9.48779C48.6592 8.91943 48.4893 8.46826 48.1494 8.13428C47.8096 7.79443 47.3086 7.62451 46.6465 7.62451C46.0664 7.62451 45.5801 7.771 45.1875 8.06396C44.7949 8.35693 44.5986 8.71143 44.5986 9.12744H42.9639C42.9639 8.65283 43.1309 8.1958 43.4648 7.75635C43.8047 7.31104 44.2617 6.95947 44.8359 6.70166C45.416 6.44385 46.0518 6.31494 46.7432 6.31494C47.8389 6.31494 48.6973 6.59033 49.3184 7.14111C49.9395 7.68604 50.2617 8.43896 50.2852 9.3999V13.7769C50.2852 14.6499 50.3965 15.3442 50.6191 15.8599V16.0005H48.9141ZM46.2158 14.7612C46.7256 14.7612 47.209 14.6294 47.666 14.3657C48.123 14.1021 48.4541 13.7593 48.6592 13.3374V11.3862H47.3848C45.3926 11.3862 44.3965 11.9692 44.3965 13.1353C44.3965 13.645 44.5664 14.0435 44.9062 14.3306C45.2461 14.6177 45.6826 14.7612 46.2158 14.7612ZM55.04 4.18799V6.49072H56.8154V7.74756H55.04V13.645C55.04 14.0259 55.1191 14.313 55.2773 14.5063C55.4355 14.6938 55.7051 14.7876 56.0859 14.7876C56.2734 14.7876 56.5312 14.7524 56.8594 14.6821V16.0005C56.4316 16.1177 56.0156 16.1763 55.6113 16.1763C54.8848 16.1763 54.3369 15.9565 53.9678 15.5171C53.5986 15.0776 53.4141 14.4536 53.4141 13.645V7.74756H51.6826V6.49072H53.4141V4.18799H55.04ZM62.6689 16.1763C61.3799 16.1763 60.3311 15.7544 59.5225 14.9106C58.7139 14.061 58.3096 12.9272 58.3096 11.5093V11.2104C58.3096 10.2671 58.4883 9.42627 58.8457 8.68799C59.209 7.94385 59.7129 7.36377 60.3574 6.94775C61.0078 6.52588 61.7109 6.31494 62.4668 6.31494C63.7031 6.31494 64.6641 6.72217 65.3496 7.53662C66.0352 8.35107 66.3779 9.51709 66.3779 11.0347V11.7114H59.9355C59.959 12.6489 60.2314 13.4077 60.7529 13.9878C61.2803 14.562 61.9482 14.8491 62.7568 14.8491C63.3311 14.8491 63.8174 14.7319 64.2158 14.4976C64.6143 14.2632 64.9629 13.9526 65.2617 13.5659L66.2549 14.3394C65.458 15.564 64.2627 16.1763 62.6689 16.1763ZM62.4668 7.65088C61.8105 7.65088 61.2598 7.89111 60.8145 8.37158C60.3691 8.84619 60.0938 9.51416 59.9883 10.3755H64.752V10.2524C64.7051 9.42627 64.4824 8.7876 64.084 8.33643C63.6855 7.87939 63.1465 7.65088 62.4668 7.65088Z" fill="#030303"/>
<path d="M13.585 3.21691H12.0982V2.49873C12.0982 2.36646 12.045 2.23961 11.9502 2.14608C11.8555 2.05255 11.7269 2 11.5929 2C11.4589 2 11.3303 2.05255 11.2356 2.14608C11.1408 2.23961 11.0875 2.36646 11.0875 2.49873V3.21292H3.91146V2.49873C3.91146 2.36646 3.85822 2.23961 3.76345 2.14608C3.66868 2.05255 3.54014 2 3.40611 2C3.27208 2 3.14354 2.05255 3.04877 2.14608C2.954 2.23961 2.90075 2.36646 2.90075 2.49873V3.21292H1.415C1.04059 3.21292 0.681447 3.35937 0.416228 3.62018C0.151009 3.88099 0.00133717 4.2349 0 4.6044V5.85619H14.996V4.6044C14.9936 4.23629 14.844 3.884 14.5798 3.62417C14.3155 3.36433 13.958 3.21795 13.585 3.21691Z" fill="#030303"/>
<path d="M0 15.6086C0.00133717 15.9781 0.151009 16.3321 0.416228 16.5929C0.681447 16.8537 1.04059 17.0001 1.415 17.0001H13.585C13.9594 17.0001 14.3186 16.8537 14.5838 16.5929C14.849 16.3321 14.9987 15.9781 15 15.6086V6.93066H0V15.6086ZM7.075 13.8681C7.11993 13.3986 7.26002 12.9428 7.48695 12.5278C7.71388 12.1128 8.02302 11.747 8.396 11.4522C9.09541 10.728 9.27835 10.5036 9.27835 9.93903C9.27835 9.51011 9.16616 9.17497 8.67192 9.17497C8.17769 9.17497 8.02709 9.53206 8.00384 10.1026H7.11138C7.08791 9.88932 7.11245 9.67355 7.18324 9.4707C7.25404 9.26785 7.36934 9.08292 7.52092 8.92914C7.6725 8.77535 7.85662 8.6565 8.06013 8.58105C8.26364 8.5056 8.48151 8.47542 8.6982 8.49268C8.90216 8.46457 9.10993 8.48291 9.30559 8.54629C9.50126 8.60966 9.67963 8.71641 9.82704 8.85833C9.97446 9.00025 10.087 9.17357 10.156 9.36504C10.2251 9.55652 10.2488 9.76103 10.2254 9.96295C10.2254 10.6323 10.0232 10.9874 9.26016 11.7245C8.78529 12.1283 8.40375 12.628 8.1413 13.1898H10.382L10.2567 13.9189H7.075V13.8681ZM4.67657 8.96749C5.047 8.91625 5.39635 8.76662 5.68728 8.5346H6.30281V13.9209H5.38104V9.53207C5.14897 9.58541 4.91179 9.61417 4.67354 9.61785L4.67657 8.96749Z" fill="#030303"/>
<path d="M151.49 1.00049C149.81 1.00241 148.167 1.5026 146.77 2.4378C145.374 3.37301 144.286 4.70125 143.644 6.25464C143.002 7.80804 142.835 9.51684 143.165 11.1651C143.494 12.8133 144.304 14.327 145.493 15.5147C146.683 16.7024 148.197 17.5109 149.846 17.838C151.495 18.1651 153.203 17.996 154.756 17.3523C156.308 16.7085 157.635 15.6188 158.569 14.2211C159.502 12.8234 160 11.1803 160 9.49953C159.999 8.3827 159.779 7.27691 159.351 6.24535C158.923 5.21379 158.296 4.27665 157.505 3.48743C156.715 2.69821 155.777 2.07239 154.745 1.64568C153.713 1.21896 152.607 0.999723 151.49 1.00049ZM151.807 12.7166L147.118 7.78396H156.496L151.807 12.7166Z" fill="#030303"/>
</svg>
