<svg width="160" height="20" viewBox="0 0 160 20" fill="none" xmlns="http://www.w3.org/2000/svg">
<path d="M40.3271 4.5918H36.2139V16H34.5352V4.5918H30.4307V3.20312H40.3271V4.5918ZM43.7373 16H42.1113V6.49023H43.7373V16ZM41.9795 3.96777C41.9795 3.7041 42.0586 3.48145 42.2168 3.2998C42.3809 3.11816 42.6211 3.02734 42.9375 3.02734C43.2539 3.02734 43.4941 3.11816 43.6582 3.2998C43.8223 3.48145 43.9043 3.7041 43.9043 3.96777C43.9043 4.23145 43.8223 4.45117 43.6582 4.62695C43.4941 4.80273 43.2539 4.89062 42.9375 4.89062C42.6211 4.89062 42.3809 4.80273 42.2168 4.62695C42.0586 4.45117 41.9795 4.23145 41.9795 3.96777ZM47.877 6.49023L47.9209 7.54492C48.6182 6.72461 49.5586 6.31445 50.7422 6.31445C52.0723 6.31445 52.9775 6.82422 53.458 7.84375C53.7744 7.38672 54.1846 7.01758 54.6885 6.73633C55.1982 6.45508 55.7988 6.31445 56.4902 6.31445C58.5762 6.31445 59.6367 7.41895 59.6719 9.62793V16H58.0459V9.72461C58.0459 9.04492 57.8906 8.53809 57.5801 8.2041C57.2695 7.86426 56.748 7.69434 56.0156 7.69434C55.4121 7.69434 54.9111 7.87598 54.5127 8.23926C54.1143 8.59668 53.8828 9.08008 53.8184 9.68945V16H52.1836V9.76855C52.1836 8.38574 51.5068 7.69434 50.1533 7.69434C49.0869 7.69434 48.3574 8.14844 47.9648 9.05664V16H46.3389V6.49023H47.877ZM66.0791 16.1758C64.79 16.1758 63.7412 15.7539 62.9326 14.9102C62.124 14.0605 61.7197 12.9268 61.7197 11.5088V11.21C61.7197 10.2666 61.8984 9.42578 62.2559 8.6875C62.6191 7.94336 63.123 7.36328 63.7676 6.94727C64.418 6.52539 65.1211 6.31445 65.877 6.31445C67.1133 6.31445 68.0742 6.72168 68.7598 7.53613C69.4453 8.35059 69.7881 9.5166 69.7881 11.0342V11.7109H63.3457C63.3691 12.6484 63.6416 13.4072 64.1631 13.9873C64.6904 14.5615 65.3584 14.8486 66.167 14.8486C66.7412 14.8486 67.2275 14.7314 67.626 14.4971C68.0244 14.2627 68.373 13.9521 68.6719 13.5654L69.665 14.3389C68.8682 15.5635 67.6729 16.1758 66.0791 16.1758ZM65.877 7.65039C65.2207 7.65039 64.6699 7.89062 64.2246 8.37109C63.7793 8.8457 63.5039 9.51367 63.3984 10.375H68.1621V10.252C68.1152 9.42578 67.8926 8.78711 67.4941 8.33594C67.0957 7.87891 66.5566 7.65039 65.877 7.65039Z" fill="#030303"/>
<path d="M151.49 1C149.81 1.00193 148.167 1.50211 146.77 2.43732C145.374 3.37252 144.286 4.70076 143.644 6.25415C143.002 7.80755 142.835 9.51634 143.165 11.1646C143.494 12.8128 144.304 14.3265 145.493 15.5142C146.683 16.7019 148.197 17.5104 149.846 17.8375C151.495 18.1646 153.203 17.9955 154.756 17.3518C156.308 16.708 157.635 15.6183 158.569 14.2206C159.502 12.8229 160 11.1798 160 9.49904C159.999 8.38221 159.779 7.27642 159.351 6.24486C158.923 5.2133 158.296 4.27616 157.505 3.48694C156.715 2.69772 155.777 2.0719 154.745 1.64519C153.713 1.21848 152.607 0.999235 151.49 1ZM151.807 12.7161L147.12 7.78347H156.493L151.807 12.7161Z" fill="#030303"/>
<path d="M7.49142 2C6.00839 2.0017 4.55915 2.44304 3.32689 3.26822C2.09464 4.0934 1.13468 5.26537 0.568362 6.63602C0.00204669 8.00666 -0.145202 9.51442 0.145226 10.9687C0.435653 12.4231 1.15072 13.7586 2.20004 14.8066C3.24936 15.8546 4.58582 16.568 6.0405 16.8566C7.49518 17.1452 9.00276 16.9961 10.3727 16.428C11.7426 15.86 12.9134 14.8985 13.737 13.6652C14.5607 12.4319 15.0002 10.9822 15 9.49915C14.9994 8.51371 14.8048 7.53802 14.4271 6.62782C14.0495 5.71762 13.4962 4.89073 12.799 4.19436C12.1017 3.49799 11.2741 2.9458 10.3634 2.56928C9.45277 2.19277 8.47685 1.99933 7.49142 2ZM10.4004 12.0192C10.3273 12.1214 10.2166 12.1904 10.0926 12.211C9.9686 12.2316 9.84152 12.2022 9.73927 12.1291L6.95478 10.1431V5.93588C6.9492 5.87048 6.95726 5.80465 6.97846 5.74253C6.99965 5.68041 7.03353 5.62336 7.07792 5.57501C7.12232 5.52667 7.17627 5.48806 7.23636 5.46166C7.29645 5.43526 7.36139 5.42162 7.42702 5.42162C7.49266 5.42162 7.55758 5.43526 7.61768 5.46166C7.67777 5.48806 7.73172 5.52667 7.77611 5.57501C7.82051 5.62336 7.85438 5.68041 7.87558 5.74253C7.89677 5.80465 7.90483 5.87048 7.89925 5.93588V9.65713L10.2862 11.3606C10.3372 11.3961 10.3808 11.4412 10.4143 11.4935C10.4479 11.5458 10.4709 11.6042 10.4819 11.6654C10.4929 11.7265 10.4917 11.7892 10.4785 11.8499C10.4652 11.9106 10.4402 11.9682 10.4047 12.0192H10.4004Z" fill="#030303"/>
</svg>
